# xmcd
#
# Track frame offsets:
#	150
#	13752
#	29755
#	40294
#	62015
#	84105
#	104439
#	123571
#	135983
#	155655
#	166139
#	181825
#	195072
#	205935
#	223769
#	239525
#	264429
#
# Disc length: 4440 seconds
#
# Revision: 0
# Processed by: cddbd v1.4PL0 Copyright (c) Steve Scherf et al.
# Submitted via: CDex 1.50
#
DISCID=e5115611
DTITLE=Various Artist - Lady Sings the Blues - Disk 2
DYEAR=2003
DGENRE=Blues
TTITLE0=Etta James - At Last
TTITLE1=Dorothy Moore - Misty Blue
TTITLE2=Kay Starr - Baby, Won't You Please Come Home
TTITLE3=Molly Johnson - Diamong In My Hand
TTITLE4=The Staple Singers - Respect Yourself
TTITLE5=Janis Joplin - Me And Bobby McGee
TTITLE6=Bobbie Gentry - Ode To Billie Joe
TTITLE7=Little Esther - Aged And Mellow Blues
TTITLE8=Diana Krall - I'm Just A Lucky So And So
TTITLE9=Dinah Washington - Call Me Irresponsible
TTITLE10=Sarah Vaughan - Stormy Weather
TTITLE11=Billie Holiday - God Bless The Child
TTITLE12=Aretha Franklin - Respect
TTITLE13=Patti Labelle - Lady Marmalade
TTITLE14=Tina Turner - Night Time Is The Right Time
TTITLE15=Eartha Kitt - C'est Si Bon
TTITLE16=Data
EXTD=YEAR: 2003
EXTT0=
EXTT1=
EXTT2=
EXTT3=
EXTT4=
EXTT5=
EXTT6=
EXTT7=
EXTT8=
EXTT9=
EXTT10=
EXTT11=
EXTT12=
EXTT13=
EXTT14=
EXTT15=
EXTT16=
PLAYORDER=
